<?xml version="1.0" encoding="UTF-8"?>
<svg id="Layer_1" data-name="Layer 1" xmlns="http://www.w3.org/2000/svg" xmlns:xlink="http://www.w3.org/1999/xlink" viewBox="0 0 6519.69 1811.87">
  <defs>
    <style>
      .cls-1 {
        fill: #fff;
      }

      .cls-2 {
        fill: none;
      }

      .cls-3 {
        fill: #0075c9;
      }

      .cls-4 {
        clip-path: url(#clippath);
      }
    </style>
    <clipPath id="clippath">
      <rect class="cls-2" y="8.27" width="1587.16" height="1803.6"/>
    </clipPath>
  </defs>
  <g id="K2_Fast" data-name="K2 Fast">
    <g>
      <g class="cls-4">
        <g>
          <path class="cls-1" d="M1574.71,727.58l-440.77-388.37V32.69c0-13.51-10.83-24.42-24.25-24.42s-24.25,10.91-24.25,24.42v263.85L815.8,58.9c-9.06-8.03-22.62-8.03-31.75-.14L12.47,727.44c-10.15,8.78-11.31,24.22-2.59,34.44,4.77,5.63,11.58,8.51,18.39,8.51,5.59,0,11.24-1.92,15.8-5.9L799.71,109.6l285.78,251.78v1142.46c0,13.52,10.83,24.42,24.25,24.42s24.25-10.91,24.25-24.42V404.12l408.82,360.24c10.08,8.85,25.41,7.82,34.2-2.26,8.79-10.15,7.77-25.59-2.32-34.51h.02Z"/>
          <path class="cls-1" d="M176.85,872.27c-13.42,0-24.25,10.91-24.25,24.42v242.03c0,13.51,10.83,24.42,24.25,24.42s24.25-10.91,24.25-24.42v-242.03c0-13.45-10.83-24.42-24.25-24.42Z"/>
          <path class="cls-1" d="M1422.72,872.27c-13.42,0-24.25,10.91-24.25,24.42v242.03c0,13.51,10.83,24.42,24.25,24.42s24.25-10.91,24.25-24.42v-242.03c0-13.45-10.83-24.42-24.25-24.42Z"/>
          <path class="cls-1" d="M486.75,585.71c-13.42,0-24.25,10.91-24.25,24.42v796.08c0,13.51,10.83,24.42,24.25,24.42s24.25-10.91,24.25-24.42v-796.08c0-13.52-10.83-24.42-24.25-24.42Z"/>
          <path class="cls-1" d="M793.52,387.24c-13.42,0-24.25,10.91-24.25,24.42v1375.65c0,13.51,10.83,24.42,24.25,24.42s24.25-10.91,24.25-24.42V411.6c-.07-13.45-10.9-24.35-24.25-24.35h0Z"/>
        </g>
      </g>
      <g>
        <path class="cls-3" d="M2082.18,1558.33l-.33,40.57h-114.39v60.36h99.1v39.74h-99.1v99.76h-49.05v-240.43h163.78-.01Z"/>
        <path class="cls-3" d="M2180.44,1558.33h51.21l85.96,240.43h-48.38l-19.45-55.7h-86.63l-19.95,55.7h-48.72l85.96-240.43h0ZM2238.13,1700.66l-31.92-95.44-32.26,95.44h64.18Z"/>
        <path class="cls-3" d="M2343.55,1731.08l50.55-1c4.82,21.95,25.44,33.92,52.04,33.92s49.38-9.81,49.38-30.26c0-18.12-17.79-26.27-41.4-30.93l-42.56-8.65c-36.91-6.82-60.36-28.27-60.69-65.18-.5-45.23,41.07-73.66,94.27-73.66,57.53,0,93.78,34.42,97.77,71.99l-49.22.83c-3.49-24.94-22.11-34.25-47.72-34.25s-43.23,11.97-43.23,29.43c0,13.97,7.65,22.11,33.75,27.77l41.9,8.48c59.86,11.47,67.17,48.88,67.17,73.82,0,38.74-40.07,68.67-99.26,68.67-48.38,0-97.43-22.61-102.75-71v.02Z"/>
        <path class="cls-3" d="M2570.5,1558.33h192.21v43.23h-71v197.2h-48.55v-197.2h-72.66v-43.23Z"/>
        <path class="cls-3" d="M2845.34,1558.33v240.43h-48.72v-240.43h48.72Z"/>
        <path class="cls-3" d="M2889.73,1679.37c0-76.32,45.06-124.37,111.07-124.37,56.86,0,96.44,38.91,97.93,80.81l-51.21.83c-4.49-22.95-21.62-40.57-47.89-40.57-32.76,0-57.03,24.44-57.03,81.31,0,62.85,28.1,81.97,58.86,81.97,28.6,0,45.06-21.28,47.22-38.41l2.16-14.63h-49.88v-33.59l100.76.5v125.53h-33.25v-31.42c-12.3,16.46-31.76,34.75-70.5,34.75-66.01,0-108.24-48.72-108.24-122.71h0Z"/>
        <path class="cls-3" d="M3198,1695.5v103.25h-48.72v-240.43h48.72v96.44h91.45v-96.44h48.72v240.43h-48.72v-103.25h-91.45Z"/>
        <path class="cls-3" d="M3390.7,1558.33h165.27l-.33,40.9h-116.06v58.36h100.93v40.07h-101.09v59.69l118.22.17v41.23h-166.93v-240.43h0Z"/>
        <path class="cls-3" d="M3583.24,1558.33h192.21v43.23h-71v197.2h-48.55v-197.2h-72.66v-43.23Z"/>
        <path class="cls-3" d="M4045.46,1606.88c0,21.28-17.29,43.06-53.21,64.18l37.58,44.23c4.49-10.14,13.8-30.76,16.29-53.04h49.71c-8.31,29.43-28.43,56.86-43.06,80.97l47.55,55.53h-55.7l-20.62-23.61c-25.77,18.79-53.54,25.27-77.32,25.27-52.87,0-77.48-25.61-77.48-62.02,0-32.92,20.28-52.71,60.52-73.99-16.96-18.95-28.76-32.26-28.76-53.54,0-31.92,28.93-56.2,70.83-56.2s73.66,20.95,73.66,52.21h0ZM3923.58,1735.74c2.16,17.96,19.12,27.6,35.08,27.6,12.8,0,30.43-5.65,42.07-16.63l-47.22-54.7c-17.62,9.98-32.59,24.77-29.93,43.73h0ZM3948.86,1607.55c0,10.97,7.98,22.78,16.46,31.92l6.82,7.15c24.11-14.96,30.76-25.61,30.76-37.58,0-17.62-13.8-25.27-28.76-24.77-15.8.33-25.27,10.64-25.27,23.28h0Z"/>
        <path class="cls-3" d="M4375.83,1558.33l-.33,40.57h-114.39v60.36h99.1v39.74h-99.1v99.76h-49.05v-240.43h163.78,0Z"/>
        <path class="cls-3" d="M4405.92,1679.21c0-76.98,43.56-124.2,110.9-124.2s110.24,47.05,110.24,124.04-42.56,123.04-110.24,123.04-110.9-46.39-110.9-122.87h0ZM4455.47,1489.83h45.39l-.33,38.24h-45.56l.5-38.24ZM4574.19,1679.71c0-60.02-22.45-84.8-57.36-84.8s-57.86,24.94-57.86,84.8,22.95,82.47,58.03,82.47,57.2-23.78,57.2-82.47h-.01ZM4532.95,1489.83h45.39l-.33,38.24h-45.56l.5-38.24Z"/>
        <path class="cls-3" d="M4807.79,1798.76l-39.07-92.61h-48.55v92.61h-48.72v-240.43h101.59c57.53,0,82.64,29.6,82.64,71.83,0,37.91-19.62,56.7-42.23,67.84l44.56,100.76h-50.22ZM4806.46,1631.32c0-22.11-16.29-35.91-38.57-35.91h-47.72v73.32h44.23c25.94,0,42.07-15.3,42.07-37.41h0Z"/>
        <path class="cls-3" d="M5005.48,1798.76h-55.04l-82.3-240.43h46.22l63.51,184.06,64.18-184.06h46.39l-82.97,240.43h0Z"/>
        <path class="cls-3" d="M5159.45,1558.33h51.21l85.96,240.43h-48.38l-19.45-55.7h-86.63l-19.95,55.7h-48.72l85.96-240.43h0ZM5217.15,1700.66l-31.92-95.44-32.26,95.44h64.18,0Z"/>
        <path class="cls-3" d="M5379.59,1558.33v199.36h104.42v41.07h-153.47l.17-240.43h48.88Z"/>
        <path class="cls-3" d="M5470.37,1558.33h192.21v43.23h-71v197.2h-48.55v-197.2h-72.66v-43.23Z"/>
        <path class="cls-3" d="M5903.01,1558.33v240.43h-43.73l-114.06-165.44v165.44h-48.72v-240.43h48.22l109.57,159.12v-159.12h48.72Z"/>
        <path class="cls-3" d="M6004.26,1558.33v240.43h-48.72v-240.43h48.72Z"/>
        <path class="cls-3" d="M6263.3,1558.33v240.43h-43.73l-114.06-165.44v165.44h-48.72v-240.43h48.22l109.57,159.12v-159.12h48.72Z"/>
        <path class="cls-3" d="M6307.7,1679.37c0-76.32,45.06-124.37,111.07-124.37,56.86,0,96.44,38.91,97.93,80.81l-51.21.83c-4.49-22.95-21.62-40.57-47.89-40.57-32.76,0-57.03,24.44-57.03,81.31,0,62.85,28.1,81.97,58.86,81.97,28.6,0,45.06-21.28,47.22-38.41l2.16-14.63h-49.88v-33.59l100.76.5v125.53h-33.25v-31.42c-12.3,16.46-31.76,34.75-70.5,34.75-66.01,0-108.24-48.72-108.24-122.71h0Z"/>
      </g>
      <g>
        <polygon class="cls-3" points="2708.7 327.6 2441.29 327.6 2127.73 677.48 2127.73 677.48 2127.73 314.85 1914.81 314.85 1914.81 1176.23 2708.7 327.6"/>
        <polygon class="cls-1" points="2140.6 1176.23 2140.6 1000.22 1977.77 1176.23 2140.6 1176.23"/>
        <rect class="cls-1" x="1914.81" width="212.93" height="280.47"/>
        <polygon class="cls-1" points="2500.97 1176.23 2765.3 1176.23 2379.14 747.99 2234.74 897.83 2500.97 1176.23"/>
      </g>
      <path class="cls-1" d="M2804.24,1175.45v-144.22c66.4-55.81,126.9-109.18,181.5-160.11,54.59-50.92,96.76-93.2,126.5-126.81,29.73-33.61,52.86-65.79,69.36-96.56,16.5-30.76,24.75-63.04,24.75-96.86,0-26.48-9.99-47.46-29.94-62.95-19.97-15.48-47.47-23.22-82.5-23.22-37.89,0-68.86,8.77-92.89,26.28-24.04,17.52-44,38.3-59.89,62.33l-139.34-97.78c34.62-51.74,75.67-88.61,123.14-110.61,47.46-22,106.64-33,177.53-33,87.18,0,155.93,20.38,206.25,61.11,50.31,40.74,75.47,97.99,75.47,171.73,0,54.19-9.88,101.75-29.64,142.7-19.77,40.95-47.88,80.67-84.33,119.17-36.47,38.5-81.89,80.97-136.28,127.42-54.39,46.45-87.91,74.36-100.53,83.72h378.28v157.67h-607.46.02Z"/>
      <g>
        <path class="cls-3" d="M3905.87,483.48v182.66h311.56v152.11h-311.56v353.1h-172.27V325.87h543.7v157.61h-371.43Z"/>
        <path class="cls-3" d="M4270.57,1171.35l279.79-845.48h224.2l280.4,845.48h-176.55l-56.2-171.66h-325.61l-54.98,171.66h-171.05ZM4545.48,848.8h227.87l-113.63-349.43-114.24,349.43Z"/>
        <path class="cls-3" d="M5770.33,926.38c0,84.71-27.8,149.67-83.39,194.88-55.59,45.21-137.56,67.81-245.89,67.81-74.94,0-140-12.43-195.18-37.26-55.19-24.84-100.09-64.96-134.7-120.35l132.56-101.41c19.55,27.7,38.08,48.47,55.59,62.31,17.51,13.85,38.28,24.65,62.31,32.38,24.03,7.74,51.72,11.61,83.08,11.61,46.83,0,83.39-8.04,109.66-24.13,26.27-16.08,39.4-40.62,39.4-73.61,0-18.73-4.58-34.41-13.75-47.04-9.16-12.62-22.91-23.52-41.24-32.68s-50.09-19.64-95.3-31.46c-43.98-11.81-85.43-23.72-124.32-35.74-38.9-12.01-72.5-27.59-100.8-46.73-28.31-19.14-50.61-43.16-66.89-72.09-16.29-28.91-24.44-65.37-24.44-109.35,0-80.23,27.08-142.85,81.25-187.85,54.16-45,131.74-67.5,232.75-67.5,146.21,0,249.65,50.09,310.34,150.28l-131.34,102.63c-23.21-35.83-49.28-61.49-78.19-76.97-28.92-15.47-63.33-23.21-103.24-23.21s-72.39,7.24-97.44,21.69c-25.05,14.46-37.57,37.17-37.57,68.12,0,27.29,13.03,48.17,39.1,62.62,26.06,14.46,71.48,29.02,136.23,43.68,35.83,9.37,71.26,19.45,106.3,30.24,35.02,10.8,66.28,25.76,93.77,44.9,27.49,19.15,49.58,44.19,66.28,75.14,16.69,30.96,25.05,70.66,25.05,119.13v-.04Z"/>
        <path class="cls-3" d="M6250.49,483.48v687.87h-172.27V483.48h-260.24v-157.61h692.76v157.61h-260.25Z"/>
      </g>
      <rect class="cls-1" x="1914.65" y="1302.75" width="4595.31" height="111.56"/>
    </g>
  </g>
</svg>