<?xml version="1.0" encoding="UTF-8"?>
<svg id="Layer_1" data-name="Layer 1" xmlns="http://www.w3.org/2000/svg" viewBox="0 0 32 25">
  <defs>
    <style>
      .cls-1 {
        fill: #fff;
      }

      .cls-2 {
        fill: #0075c9;
      }
    </style>
  </defs>
  <polygon class="cls-2" points="16.97 6.96 11.26 6.96 4.55 14.4 4.55 14.4 4.55 6.69 0 6.69 0 25 16.97 6.96"/>
  <polygon class="cls-1" points="4.83 25 4.83 21.26 1.35 25 4.83 25"/>
  <rect class="cls-1" width="4.55" height="5.96"/>
  <polygon class="cls-1" points="12.53 25 18.18 25 9.93 15.9 6.84 19.08 12.53 25"/>
  <path class="cls-1" d="M19.01,24.98v-3.07c1.42-1.19,2.71-2.32,3.88-3.4,1.17-1.08,2.07-1.98,2.7-2.7.64-.71,1.13-1.4,1.48-2.05.35-.65.53-1.34.53-2.06,0-.56-.21-1.01-.64-1.34-.43-.33-1.01-.49-1.76-.49-.81,0-1.47.19-1.99.56-.51.37-.94.81-1.28,1.32l-2.98-2.08c.74-1.1,1.62-1.88,2.63-2.35,1.01-.47,2.28-.7,3.8-.7,1.86,0,3.33.43,4.41,1.3,1.08.87,1.61,2.08,1.61,3.65,0,1.15-.21,2.16-.63,3.03-.42.87-1.02,1.71-1.8,2.53-.78.82-1.75,1.72-2.91,2.71-1.16.99-1.88,1.58-2.15,1.78h8.09v3.35h-12.99,0,0Z"/>
</svg>